name analog
datacolumns 19
datarows 62
range 0.46950000000000003 0.5
endheader
time	ground_force_vx	ground_force_vy	ground_force_vz	ground_force_px	ground_force_py	ground_force_pz	l_ground_force_vx	l_ground_force_vy	l_ground_force_vz	l_ground_force_px	l_ground_force_py	l_ground_force_pz	ground_torque_x	ground_torque_y	ground_torque_z	l_ground_torque_x	l_ground_torque_y	l_ground_torque_z
0.46950000000000003	-0.0	-0.0	-0.0	-0.0	-0.0	-0.0	-5.854911804199219	1.2781033515930176	-893.4271240234375	-0.0	-0.0	-0.0	-0.0	-0.0	-0.0	238344.875	-3327.06689453125	-114.6494369506836
0.47000000000000003	-0.0	-0.0	-0.0	-0.0	-0.0	-0.0	-6.186233043670654	-0.0053537786006927	-895.5738525390625	-0.0	-0.0	-0.0	-0.0	-0.0	-0.0	238431.015625	-3007.78369140625	47.0615234375
0.47050000000000003	-0.0	-0.0	-0.0	-0.0	-0.0	-0.0	-6.22767448425293	-2.1084156036376958	-895.6220703125	-0.0	-0.0	-0.0	-0.0	-0.0	-0.0	237812.03125	-2381.8701171875	66.05088806152344
0.47100000000000003	-0.0	-0.0	-0.0	-0.0	-0.0	-0.0	-6.115202903747559	-3.4857985973358154	-892.9437866210938	-0.0	-0.0	-0.0	-0.0	-0.0	-0.0	237301.265625	-1790.4923095703125	267.6928405761719
0.47150000000000003	-0.0	-0.0	-0.0	-0.0	-0.0	-0.0	-6.546926498413086	-4.657473564147949	-889.5451049804688	-0.0	-0.0	-0.0	-0.0	-0.0	-0.0	236602.1875	-1260.8131103515625	158.3175506591797
0.47200000000000003	-0.0	-0.0	-0.0	-0.0	-0.0	-0.0	-7.4517059326171875	-5.775650024414063	-887.5186157226562	-0.0	-0.0	-0.0	-0.0	-0.0	-0.0	235676.890625	-710.1683349609375	17.06334114074707
0.47250000000000003	-0.0	-0.0	-0.0	-0.0	-0.0	-0.0	-7.404113292694092	-6.260039806365967	-881.982421875	-0.0	-0.0	-0.0	-0.0	-0.0	-0.0	234493.796875	-503.21728515625	-125.51201629638672
0.47300000000000003	-0.0	-0.0	-0.0	-0.0	-0.0	-0.0	-6.967151165008545	-7.1711273193359375	-876.907470703125	-0.0	-0.0	-0.0	-0.0	-0.0	-0.0	233585.859375	38.88346099853516	-158.58685302734375
0.47350000000000003	-0.0	-0.0	-0.0	-0.0	-0.0	-0.0	-6.878590106964111	-7.466671466827393	-876.343017578125	-0.0	-0.0	-0.0	-0.0	-0.0	-0.0	232979.5625	233.7475128173828	-133.44667053222656
0.47400000000000003	-0.0	-0.0	-0.0	-0.0	-0.0	-0.0	-6.614986419677734	-7.330699920654297	-873.2564086914062	-0.0	-0.0	-0.0	-0.0	-0.0	-0.0	232818.0	294.6705627441406	-146.87091064453125
0.47450000000000003	-0.0	-0.0	-0.0	-0.0	-0.0	-0.0	-6.241276741027832	-6.311279296875	-871.70751953125	-0.0	-0.0	-0.0	-0.0	-0.0	-0.0	232610.796875	442.25103759765625	-175.9851531982422
0.47500000000000003	-0.0	-0.0	-0.0	-0.0	-0.0	-0.0	-5.500068664550781	-3.910153150558472	-871.6417846679688	-0.0	-0.0	-0.0	-0.0	-0.0	-0.0	232778.046875	557.1607666015625	16.69879722595215
0.47550000000000003	-0.0	-0.0	-0.0	-0.0	-0.0	-0.0	-4.580417156219482	-1.959277391433716	-871.0692749023438	-0.0	-0.0	-0.0	-0.0	-0.0	-0.0	233630.484375	676.710693359375	106.82660675048828
0.47600000000000003	-0.0	-0.0	-0.0	-0.0	-0.0	-0.0	-4.000159740447998	0.1685046851634979	-870.942626953125	-0.0	-0.0	-0.0	-0.0	-0.0	-0.0	233896.703125	338.5380249023437	-0.0686272978782653
0.47650000000000003	-0.0	-0.0	-0.0	-0.0	-0.0	-0.0	-2.790219783782959	2.0797111988067627	-871.3540649414062	-0.0	-0.0	-0.0	-0.0	-0.0	-0.0	234457.65625	315.6356811523437	68.52078247070312
0.47700000000000004	-0.0	-0.0	-0.0	-0.0	-0.0	-0.0	-1.935890555381775	3.1553659439086914	-871.291015625	-0.0	-0.0	-0.0	-0.0	-0.0	-0.0	235165.984375	98.31251525878906	282.1976623535156
0.47750000000000004	-0.0	-0.0	-0.0	-0.0	-0.0	-0.0	-0.4280321598052978	5.314754962921143	-871.2293090820312	-0.0	-0.0	-0.0	-0.0	-0.0	-0.0	235868.3125	-77.23934173583984	424.5
0.47800000000000004	-0.0	-0.0	-0.0	-0.0	-0.0	-0.0	0.709686279296875	6.526803493499756	-872.1452026367188	-0.0	-0.0	-0.0	-0.0	-0.0	-0.0	236354.875	-469.34954833984375	714.0994873046875
0.47850000000000004	-0.0	-0.0	-0.0	-0.0	-0.0	-0.0	1.7100178003311155	7.31559419631958	-873.926513671875	-0.0	-0.0	-0.0	-0.0	-0.0	-0.0	236991.015625	-840.7852783203125	782.5361938476562
0.47900000000000004	-0.0	-0.0	-0.0	-0.0	-0.0	-0.0	2.7104666233062744	7.315769672393799	-872.2774658203125	-0.0	-0.0	-0.0	-0.0	-0.0	-0.0	236498.359375	-1299.4459228515625	1200.3765869140625
0.47950000000000004	-0.0	-0.0	-0.0	-0.0	-0.0	-0.0	4.297602653503418	6.172820091247559	-871.0364379882812	-0.0	-0.0	-0.0	-0.0	-0.0	-0.0	236619.546875	-1244.2518310546875	1552.12744140625
0.48	-0.0	-0.0	-0.0	-0.0	-0.0	-0.0	5.401317119598389	5.485941410064697	-869.9310302734375	-0.0	-0.0	-0.0	-0.0	-0.0	-0.0	236308.296875	-1490.6014404296875	1934.937744140625
0.4805	-0.0	-0.0	-0.0	-0.0	-0.0	-0.0	5.9931159019470215	4.352400779724121	-869.4279174804688	-0.0	-0.0	-0.0	-0.0	-0.0	-0.0	235736.46875	-1241.6207275390625	2019.0863037109373
0.481	-0.0	-0.0	-0.0	-0.0	-0.0	-0.0	4.549038410186768	3.454941749572754	-868.396484375	-0.0	-0.0	-0.0	-0.0	-0.0	-0.0	235080.625	-723.8389282226562	1728.118896484375
0.4815	-0.0	-0.0	-0.0	-0.0	-0.0	-0.0	3.2681777477264404	1.791187763214111	-866.6365356445312	-0.0	-0.0	-0.0	-0.0	-0.0	-0.0	234395.046875	-213.4881896972656	1380.3612060546875
0.482	-0.0	-0.0	-0.0	-0.0	-0.0	-0.0	2.486992120742798	0.0247952565550804	-863.8011474609375	-0.0	-0.0	-0.0	-0.0	-0.0	-0.0	233709.125	207.9189453125	1336.6568603515625
0.4825	-0.0	-0.0	-0.0	-0.0	-0.0	-0.0	1.5967941284179688	-1.1867637634277344	-860.7570190429688	-0.0	-0.0	-0.0	-0.0	-0.0	-0.0	232812.6875	565.02880859375	1034.47021484375
0.483	-0.0	-0.0	-0.0	-0.0	-0.0	-0.0	0.329805314540863	-2.334829568862915	-859.5127563476562	-0.0	-0.0	-0.0	-0.0	-0.0	-0.0	232186.40625	1109.136474609375	677.3676147460938
0.4835	-0.0	-0.0	-0.0	-0.0	-0.0	-0.0	-0.6093698143959045	-2.801324844360352	-858.715576171875	-0.0	-0.0	-0.0	-0.0	-0.0	-0.0	232260.46875	1572.941162109375	367.090576171875
0.484	-0.0	-0.0	-0.0	-0.0	-0.0	-0.0	-1.3306617736816406	-2.422919750213623	-860.3616943359375	-0.0	-0.0	-0.0	-0.0	-0.0	-0.0	232625.6875	1732.0968017578125	95.84161376953124
0.4845	-0.0	-0.0	-0.0	-0.0	-0.0	-0.0	-2.0020620822906494	-2.5483124256134038	-863.3049926757812	-0.0	-0.0	-0.0	-0.0	-0.0	-0.0	233427.828125	1870.2735595703125	-57.34018325805664
0.485	-0.0	-0.0	-0.0	-0.0	-0.0	-0.0	-1.938686847686768	-1.841861724853516	-865.9469604492188	-0.0	-0.0	-0.0	-0.0	-0.0	-0.0	233890.296875	1866.4083251953125	-158.82785034179688
0.4855	-0.0	-0.0	-0.0	-0.0	-0.0	-0.0	-2.052950859069824	-1.261598825454712	-868.1907958984375	-0.0	-0.0	-0.0	-0.0	-0.0	-0.0	234991.578125	1636.0074462890625	-408.5664367675781
0.486	-0.0	-0.0	-0.0	-0.0	-0.0	-0.0	-1.457510471343994	-0.5424764156341553	-872.4796142578125	-0.0	-0.0	-0.0	-0.0	-0.0	-0.0	235907.375	1528.7762451171875	-505.4630737304688
0.4865	-0.0	-0.0	-0.0	-0.0	-0.0	-0.0	-1.115418791770935	0.2142988592386245	-875.0226440429688	-0.0	-0.0	-0.0	-0.0	-0.0	-0.0	236763.03125	1398.8798828125	-543.2000732421875
0.487	-0.0	-0.0	-0.0	-0.0	-0.0	-0.0	-0.3548431396484375	1.2111124992370603	-878.0115966796875	-0.0	-0.0	-0.0	-0.0	-0.0	-0.0	237474.875	726.943603515625	-436.37738037109375
0.4875	-0.0	-0.0	-0.0	-0.0	-0.0	-0.0	0.6344434022903442	1.980533480644226	-882.6552734375	-0.0	-0.0	-0.0	-0.0	-0.0	-0.0	238698.078125	317.4486999511719	-371.6328125
0.488	-0.0	-0.0	-0.0	-0.0	-0.0	-0.0	0.6584469676017761	2.8262939453125	-882.70947265625	-0.0	-0.0	-0.0	-0.0	-0.0	-0.0	239132.3125	335.58990478515625	-511.6694641113281
0.4885	-0.0	-0.0	-0.0	-0.0	-0.0	-0.0	0.2265369296073913	3.3306753635406494	-884.0518798828125	-0.0	-0.0	-0.0	-0.0	-0.0	-0.0	239539.59375	62.55903244018555	-812.42431640625
0.489	-0.0	-0.0	-0.0	-0.0	-0.0	-0.0	0.0257198810577392	3.4560461044311523	-884.1985473632812	-0.0	-0.0	-0.0	-0.0	-0.0	-0.0	239468.65625	-196.3463134765625	-1198.12841796875
0.4895	-0.0	-0.0	-0.0	-0.0	-0.0	-0.0	-0.3403744995594024	3.165175437927246	-883.4105224609375	-0.0	-0.0	-0.0	-0.0	-0.0	-0.0	239237.296875	-376.15728759765625	-1190.837890625
0.49	-0.0	-0.0	-0.0	-0.0	-0.0	-0.0	0.0628743320703506	3.017508029937744	-881.6654052734375	-0.0	-0.0	-0.0	-0.0	-0.0	-0.0	238933.359375	-669.4513549804688	-1313.046142578125
0.4905	-0.0	-0.0	-0.0	-0.0	-0.0	-0.0	0.2920437753200531	2.171315908432007	-880.70556640625	-0.0	-0.0	-0.0	-0.0	-0.0	-0.0	238357.921875	-1132.09619140625	-1253.7950439453125
0.491	-0.0	-0.0	-0.0	-0.0	-0.0	-0.0	0.6469284892082214	2.2554898262023926	-879.1043701171875	-0.0	-0.0	-0.0	-0.0	-0.0	-0.0	237859.5625	-1486.101806640625	-1323.7493896484375
0.4915	-0.0	-0.0	-0.0	-0.0	-0.0	-0.0	1.0018303394317627	1.7252674102783203	-878.5678100585938	-0.0	-0.0	-0.0	-0.0	-0.0	-0.0	237379.625	-1980.10693359375	-1401.757080078125
0.492	-0.0	-0.0	-0.0	-0.0	-0.0	-0.0	1.5863432884216309	2.1301255226135254	-878.8145751953125	-0.0	-0.0	-0.0	-0.0	-0.0	-0.0	237217.53125	-2364.985107421875	-1300.0538330078125
0.4925	-0.0	-0.0	-0.0	-0.0	-0.0	-0.0	2.3429346084594727	1.667831301689148	-878.3219604492188	-0.0	-0.0	-0.0	-0.0	-0.0	-0.0	237196.25	-2559.55419921875	-1205.398681640625
0.493	-0.0	-0.0	-0.0	-0.0	-0.0	-0.0	3.193588256835937	1.6621460914611816	-878.0132446289062	-0.0	-0.0	-0.0	-0.0	-0.0	-0.0	236827.40625	-3248.07080078125	-1142.05322265625
0.4935	-0.0	-0.0	-0.0	-0.0	-0.0	-0.0	3.709516763687134	1.475322127342224	-877.5856323242188	-0.0	-0.0	-0.0	-0.0	-0.0	-0.0	236277.65625	-3568.635009765625	-1023.127685546875
0.494	-0.0	-0.0	-0.0	-0.0	-0.0	-0.0	4.30092191696167	0.5037424564361572	-878.9181518554688	-0.0	-0.0	-0.0	-0.0	-0.0	-0.0	236046.234375	-3610.987548828125	-880.1792602539062
0.4945	-0.0	-0.0	-0.0	-0.0	-0.0	-0.0	5.049290180206299	-0.0262623205780982	-878.3992919921875	-0.0	-0.0	-0.0	-0.0	-0.0	-0.0	236123.59375	-4116.86572265625	-827.0087280273438
0.495	-0.0	-0.0	-0.0	-0.0	-0.0	-0.0	5.418990612030029	-0.2836863398551941	-878.2874755859375	-0.0	-0.0	-0.0	-0.0	-0.0	-0.0	235549.03125	-4294.39208984375	-805.9871826171875
0.4955	-0.0	-0.0	-0.0	-0.0	-0.0	-0.0	6.113118171691895	-0.6538493037223816	-878.6427001953125	-0.0	-0.0	-0.0	-0.0	-0.0	-0.0	235015.03125	-4237.56103515625	-529.7711791992188
0.496	-0.0	-0.0	-0.0	-0.0	-0.0	-0.0	6.218806266784668	-1.5723650455474854	-875.9857788085938	-0.0	-0.0	-0.0	-0.0	-0.0	-0.0	234258.875	-4546.845703125	-538.8084106445312
0.4965	-0.0	-0.0	-0.0	-0.0	-0.0	-0.0	6.768614768981934	-3.3915891647338867	-874.275634765625	-0.0	-0.0	-0.0	-0.0	-0.0	-0.0	233380.984375	-4255.24560546875	-357.9244079589844
0.497	-0.0	-0.0	-0.0	-0.0	-0.0	-0.0	6.8040771484375	-5.175730705261231	-872.0758666992188	-0.0	-0.0	-0.0	-0.0	-0.0	-0.0	232428.5625	-3823.344970703125	-340.60528564453125
0.4975	-0.0	-0.0	-0.0	-0.0	-0.0	-0.0	5.828183650970459	-6.615638256072998	-869.3539428710938	-0.0	-0.0	-0.0	-0.0	-0.0	-0.0	231720.375	-3243.695556640625	-439.6450500488281
0.498	-0.0	-0.0	-0.0	-0.0	-0.0	-0.0	4.42713737487793	-7.489055633544922	-866.633544921875	-0.0	-0.0	-0.0	-0.0	-0.0	-0.0	230902.1875	-2815.78125	-621.6984252929688
0.4985	-0.0	-0.0	-0.0	-0.0	-0.0	-0.0	3.5939440727233887	-7.488757133483887	-865.4090576171875	-0.0	-0.0	-0.0	-0.0	-0.0	-0.0	229997.03125	-2315.55078125	-690.5956420898438
0.499	-0.0	-0.0	-0.0	-0.0	-0.0	-0.0	3.04306960105896	-7.322732925415039	-862.7850952148438	-0.0	-0.0	-0.0	-0.0	-0.0	-0.0	229905.9375	-1876.052978515625	-1067.6011962890625
0.4995	-0.0	-0.0	-0.0	-0.0	-0.0	-0.0	2.10211443901062	-6.624126434326172	-863.2398071289062	-0.0	-0.0	-0.0	-0.0	-0.0	-0.0	229913.515625	-1642.354736328125	-1302.7711181640625
0.5	-0.0	-0.0	-0.0	-0.0	-0.0	-0.0	1.357681155204773	-4.85007381439209	-864.0439453125	-0.0	-0.0	-0.0	-0.0	-0.0	-0.0	230372.734375	-1101.5921630859375	-1698.79345703125
